<mxfile host="app.diagrams.net" agent="Mozilla/5.0 (Macintosh; Intel Mac OS X 10_15_7) AppleWebKit/605.1.15 (KHTML, like Gecko) Version/18.0.1 Safari/605.1.15" version="24.8.4">
  <diagram name="Page-1" id="ykQXPO-A_N70wSNFyHUw">
    <mxGraphModel dx="3533" dy="1187" grid="1" gridSize="10" guides="1" tooltips="1" connect="1" arrows="1" fold="1" page="1" pageScale="1" pageWidth="850" pageHeight="1100" math="0" shadow="0">
      <root>
        <mxCell id="0" />
        <mxCell id="1" parent="0" />
        <mxCell id="X0dmrrOlAeSeErXz5RRt-1" value="&lt;h1 style=&quot;margin-top: 0px; line-height: 80%;&quot;&gt;1. Clarifying Questions&lt;/h1&gt;&lt;h1 style=&quot;margin-top: 0px; font-size: 18px; line-height: 80%;&quot;&gt;&lt;ul style=&quot;line-height: 80%;&quot;&gt;&lt;li&gt;&lt;span style=&quot;font-size: 12px; font-weight: 400;&quot;&gt;Business objective: Increase user engagement&lt;/span&gt;&lt;/li&gt;&lt;li&gt;&lt;span style=&quot;font-size: 12px; font-weight: 400;&quot;&gt;Recommend similar videos to the videos user is watching now or show personalized videos on the homepage? Homepage&lt;/span&gt;&lt;/li&gt;&lt;li&gt;&lt;span style=&quot;font-size: 12px; font-weight: 400;&quot;&gt;worldwide located user and different languages?&amp;nbsp;&lt;/span&gt;&lt;/li&gt;&lt;li&gt;&lt;span style=&quot;font-size: 12px; font-weight: 400;&quot;&gt;Dataset available? or I construct it based on used interaction with the videos?&amp;nbsp;&lt;/span&gt;&lt;/li&gt;&lt;li&gt;&lt;span style=&quot;font-size: 12px; font-weight: 400;&quot;&gt;How many videos available on platform? 10 Billion&lt;/span&gt;&lt;/li&gt;&lt;li&gt;&lt;span style=&quot;font-size: 12px; font-weight: 400;&quot;&gt;How fast should system recommend the videos? real time when the user loads the homepage --&amp;gt; &amp;lt; 200ms&lt;/span&gt;&lt;/li&gt;&lt;/ul&gt;&lt;div style=&quot;line-height: 80%;&quot;&gt;2. Problem statement&lt;/div&gt;&lt;div style=&quot;line-height: 80%;&quot;&gt;&lt;span style=&quot;font-size: 12px; font-weight: 400;&quot;&gt;We want to design a system:&amp;nbsp;&lt;/span&gt;&lt;/div&gt;&lt;div style=&quot;line-height: 80%;&quot;&gt;&lt;ul style=&quot;line-height: 80%;&quot;&gt;&lt;li&gt;&lt;span style=&quot;font-size: 12px; font-weight: 400;&quot;&gt;Homepage video recommendation&lt;/span&gt;&lt;/li&gt;&lt;li&gt;&lt;span style=&quot;font-size: 12px; font-weight: 400;&quot;&gt;Business objective: increase user engagement&lt;/span&gt;&lt;/li&gt;&lt;li&gt;&lt;span style=&quot;font-size: 12px; font-weight: 400;&quot;&gt;Each time user loads the homepage, the system should recommend most engaging videos&lt;/span&gt;&lt;/li&gt;&lt;li&gt;&lt;span style=&quot;font-size: 12px; font-weight: 400;&quot;&gt;Users are worldwide and videos are in different languages&lt;/span&gt;&lt;/li&gt;&lt;li&gt;&lt;span style=&quot;font-size: 12px; font-weight: 400;&quot;&gt;~ 10 Billion videos on platform&lt;/span&gt;&lt;/li&gt;&lt;li&gt;&lt;span style=&quot;font-size: 12px; font-weight: 400;&quot;&gt;recommendation should be served quickly &amp;lt; 200 ms&lt;/span&gt;&lt;/li&gt;&lt;/ul&gt;&lt;div style=&quot;line-height: 80%;&quot;&gt;&lt;span style=&quot;font-weight: 400;&quot;&gt;ML Objective:&amp;nbsp;&lt;/span&gt;&lt;/div&gt;&lt;/div&gt;&lt;div style=&quot;line-height: 80%;&quot;&gt;&lt;span style=&quot;font-size: 12px; font-weight: 400;&quot;&gt;Increase user engagement&lt;/span&gt;&lt;/div&gt;&lt;div style=&quot;line-height: 80%;&quot;&gt;&lt;ul style=&quot;line-height: 80%;&quot;&gt;&lt;li&gt;&lt;span style=&quot;font-size: 12px; font-weight: 400;&quot;&gt;Maximize number of user clicks --&amp;gt; &amp;nbsp;drawback: model may start recommending clickbaits --&amp;gt; reduce user satisfaction and engagement over time&lt;/span&gt;&lt;/li&gt;&lt;li&gt;&lt;span style=&quot;font-size: 12px; font-weight: 400;&quot;&gt;Maximize number of completed&amp;nbsp;videos --&amp;gt; drawback: system may recommend shorter videos&lt;/span&gt;&lt;/li&gt;&lt;li&gt;&lt;span style=&quot;font-size: 12px; font-weight: 400;&quot;&gt;Maximize total watch time --&amp;gt; User spends more time on platform&lt;/span&gt;&lt;/li&gt;&lt;li&gt;&lt;span style=&quot;font-size: 12px; font-weight: 400;&quot;&gt;&lt;font color=&quot;#ff3399&quot;&gt;Maximize number of relevant videos &lt;/font&gt;--&amp;gt; relevance: watch &amp;gt; half of the video or press like --&amp;gt; relevance score&lt;/span&gt;&lt;/li&gt;&lt;/ul&gt;&lt;/div&gt;&lt;/h1&gt;" style="text;html=1;whiteSpace=wrap;overflow=hidden;rounded=0;" vertex="1" parent="1">
          <mxGeometry x="-1655" y="40" width="775" height="470" as="geometry" />
        </mxCell>
        <mxCell id="X0dmrrOlAeSeErXz5RRt-14" value="&lt;h1 style=&quot;margin-top: 0px;&quot;&gt;ML Design&lt;/h1&gt;&lt;div&gt;&lt;ul&gt;&lt;li&gt;Content based filtering:&amp;nbsp;&lt;/li&gt;&lt;ul&gt;&lt;li&gt;Pros:&amp;nbsp;&lt;/li&gt;&lt;ul&gt;&lt;li&gt;Ability to recommend new videos, the video profile depends entirely on video features&lt;/li&gt;&lt;li&gt;Ability to capture the unique interests of user: we recommend videos based of users&#39;s previous engagement&lt;/li&gt;&lt;/ul&gt;&lt;li&gt;Cons:&amp;nbsp;&lt;/li&gt;&lt;ul&gt;&lt;li&gt;Difficult to discover a user&#39;s new interests&lt;/li&gt;&lt;li&gt;&amp;nbsp;Requires domain knowledge, we need to engineer the video features manually&lt;/li&gt;&lt;/ul&gt;&lt;/ul&gt;&lt;/ul&gt;&lt;div&gt;&lt;br&gt;&lt;/div&gt;&lt;div&gt;&lt;br&gt;&lt;/div&gt;&lt;div&gt;&lt;br&gt;&lt;/div&gt;&lt;div&gt;&lt;br&gt;&lt;/div&gt;&lt;div&gt;&lt;br&gt;&lt;/div&gt;&lt;div&gt;&lt;br&gt;&lt;/div&gt;&lt;div&gt;&lt;br&gt;&lt;/div&gt;&lt;div&gt;&lt;br&gt;&lt;/div&gt;&lt;div&gt;&lt;br&gt;&lt;/div&gt;&lt;div&gt;&lt;br&gt;&lt;/div&gt;&lt;div&gt;&lt;br&gt;&lt;/div&gt;&lt;div&gt;&lt;br&gt;&lt;/div&gt;&lt;div&gt;&lt;br&gt;&lt;/div&gt;&lt;div&gt;&lt;br&gt;&lt;/div&gt;&lt;div&gt;&lt;br&gt;&lt;/div&gt;&lt;div&gt;&lt;br&gt;&lt;/div&gt;&lt;ul&gt;&lt;li&gt;collaborative filtering: user-user similarity and video-video similarity --&amp;gt; similar users are interested in similar videos&amp;nbsp;&lt;/li&gt;&lt;ul&gt;&lt;li&gt;Major difference with content based: CF doesn&#39;t use video features&lt;/li&gt;&lt;li&gt;Pros:&lt;/li&gt;&lt;ul&gt;&lt;li&gt;No domain knowledge needed: CF doesn&#39;t rely on video features&lt;/li&gt;&lt;li&gt;Easy to discover user&#39;s new area of interest: recommends videos about new topics that other similar users engaged with&amp;nbsp;&lt;/li&gt;&lt;li&gt;Efficient: faster and less computationally intensive&lt;/li&gt;&lt;/ul&gt;&lt;li&gt;Cons:&amp;nbsp;&lt;/li&gt;&lt;ul&gt;&lt;li&gt;Coldstart problem: due to lack of historical interaction data for new user or video&lt;/li&gt;&lt;li&gt;can&#39;t handle niche interests:&amp;nbsp;&lt;/li&gt;&lt;/ul&gt;&lt;/ul&gt;&lt;/ul&gt;&lt;div&gt;&lt;br&gt;&lt;/div&gt;&lt;div&gt;&lt;br&gt;&lt;/div&gt;&lt;div&gt;&lt;br&gt;&lt;/div&gt;&lt;div&gt;&lt;br&gt;&lt;/div&gt;&lt;div&gt;&lt;br&gt;&lt;/div&gt;&lt;div&gt;&lt;br&gt;&lt;/div&gt;&lt;div&gt;&lt;br&gt;&lt;/div&gt;&lt;div&gt;&lt;br&gt;&lt;/div&gt;&lt;div&gt;&lt;br&gt;&lt;/div&gt;&lt;div&gt;&lt;br&gt;&lt;/div&gt;&lt;div&gt;&lt;br&gt;&lt;/div&gt;&lt;div&gt;&lt;br&gt;&lt;/div&gt;&lt;div&gt;&lt;br&gt;&lt;/div&gt;&lt;div&gt;&lt;br&gt;&lt;/div&gt;&lt;div&gt;&lt;br&gt;&lt;/div&gt;&lt;div&gt;&lt;br&gt;&lt;/div&gt;&lt;div&gt;&lt;br&gt;&lt;/div&gt;&lt;div&gt;&lt;br&gt;&lt;/div&gt;&lt;div&gt;&lt;br&gt;&lt;/div&gt;&lt;div&gt;&lt;br&gt;&lt;/div&gt;&lt;div&gt;&lt;br&gt;&lt;/div&gt;&lt;ul&gt;&lt;li&gt;hybrid filtering&lt;/li&gt;&lt;/ul&gt;&lt;/div&gt;" style="text;html=1;whiteSpace=wrap;overflow=hidden;rounded=0;" vertex="1" parent="1">
          <mxGeometry x="-1655" y="770" width="775" height="860" as="geometry" />
        </mxCell>
        <mxCell id="X0dmrrOlAeSeErXz5RRt-15" value="" style="group" vertex="1" connectable="0" parent="1">
          <mxGeometry x="-1600" y="500" width="600" height="260" as="geometry" />
        </mxCell>
        <mxCell id="X0dmrrOlAeSeErXz5RRt-8" value="" style="edgeStyle=orthogonalEdgeStyle;rounded=0;orthogonalLoop=1;jettySize=auto;html=1;" edge="1" parent="X0dmrrOlAeSeErXz5RRt-15" source="X0dmrrOlAeSeErXz5RRt-2">
          <mxGeometry relative="1" as="geometry">
            <mxPoint x="340" y="100" as="targetPoint" />
            <Array as="points">
              <mxPoint x="300" y="100" />
              <mxPoint x="300" y="100" />
            </Array>
          </mxGeometry>
        </mxCell>
        <mxCell id="X0dmrrOlAeSeErXz5RRt-11" value="" style="edgeStyle=orthogonalEdgeStyle;rounded=0;orthogonalLoop=1;jettySize=auto;html=1;startArrow=classic;startFill=1;" edge="1" parent="X0dmrrOlAeSeErXz5RRt-15" source="X0dmrrOlAeSeErXz5RRt-2" target="X0dmrrOlAeSeErXz5RRt-10">
          <mxGeometry relative="1" as="geometry">
            <Array as="points">
              <mxPoint x="200" y="150" />
              <mxPoint x="200" y="150" />
            </Array>
          </mxGeometry>
        </mxCell>
        <mxCell id="X0dmrrOlAeSeErXz5RRt-2" value="Video recommendation system" style="rounded=0;whiteSpace=wrap;html=1;" vertex="1" parent="X0dmrrOlAeSeErXz5RRt-15">
          <mxGeometry x="140" y="70" width="120" height="60" as="geometry" />
        </mxCell>
        <mxCell id="X0dmrrOlAeSeErXz5RRt-3" value="" style="rounded=0;whiteSpace=wrap;html=1;" vertex="1" parent="X0dmrrOlAeSeErXz5RRt-15">
          <mxGeometry x="340" width="120" height="250" as="geometry" />
        </mxCell>
        <mxCell id="X0dmrrOlAeSeErXz5RRt-4" value="Video 1" style="rounded=1;whiteSpace=wrap;html=1;" vertex="1" parent="X0dmrrOlAeSeErXz5RRt-15">
          <mxGeometry x="355" y="20" width="90" height="40" as="geometry" />
        </mxCell>
        <mxCell id="X0dmrrOlAeSeErXz5RRt-5" value="Video 2" style="rounded=1;whiteSpace=wrap;html=1;" vertex="1" parent="X0dmrrOlAeSeErXz5RRt-15">
          <mxGeometry x="355" y="80" width="95" height="40" as="geometry" />
        </mxCell>
        <mxCell id="X0dmrrOlAeSeErXz5RRt-6" value="Video n" style="rounded=1;whiteSpace=wrap;html=1;" vertex="1" parent="X0dmrrOlAeSeErXz5RRt-15">
          <mxGeometry x="355" y="190" width="90" height="40" as="geometry" />
        </mxCell>
        <mxCell id="X0dmrrOlAeSeErXz5RRt-7" value="Based on relevance score" style="text;html=1;align=center;verticalAlign=middle;whiteSpace=wrap;rounded=0;" vertex="1" parent="X0dmrrOlAeSeErXz5RRt-15">
          <mxGeometry x="480" y="60" width="120" height="30" as="geometry" />
        </mxCell>
        <mxCell id="X0dmrrOlAeSeErXz5RRt-10" value="Videos&amp;nbsp;&lt;div&gt;10 Billion&lt;/div&gt;" style="shape=cylinder3;whiteSpace=wrap;html=1;boundedLbl=1;backgroundOutline=1;size=15;" vertex="1" parent="X0dmrrOlAeSeErXz5RRt-15">
          <mxGeometry x="170" y="180" width="60" height="80" as="geometry" />
        </mxCell>
        <mxCell id="X0dmrrOlAeSeErXz5RRt-13" value="" style="edgeStyle=orthogonalEdgeStyle;rounded=0;orthogonalLoop=1;jettySize=auto;html=1;" edge="1" parent="X0dmrrOlAeSeErXz5RRt-15" source="X0dmrrOlAeSeErXz5RRt-12" target="X0dmrrOlAeSeErXz5RRt-2">
          <mxGeometry relative="1" as="geometry" />
        </mxCell>
        <mxCell id="X0dmrrOlAeSeErXz5RRt-12" value="" style="shape=actor;whiteSpace=wrap;html=1;" vertex="1" parent="X0dmrrOlAeSeErXz5RRt-15">
          <mxGeometry y="70" width="40" height="60" as="geometry" />
        </mxCell>
        <mxCell id="X0dmrrOlAeSeErXz5RRt-42" value="" style="group" vertex="1" connectable="0" parent="1">
          <mxGeometry x="-1490" y="940" width="380" height="230" as="geometry" />
        </mxCell>
        <mxCell id="X0dmrrOlAeSeErXz5RRt-37" value="" style="edgeStyle=orthogonalEdgeStyle;rounded=0;orthogonalLoop=1;jettySize=auto;html=1;" edge="1" parent="X0dmrrOlAeSeErXz5RRt-42" source="X0dmrrOlAeSeErXz5RRt-28" target="X0dmrrOlAeSeErXz5RRt-31">
          <mxGeometry relative="1" as="geometry" />
        </mxCell>
        <mxCell id="X0dmrrOlAeSeErXz5RRt-28" value="" style="shape=actor;whiteSpace=wrap;html=1;" vertex="1" parent="X0dmrrOlAeSeErXz5RRt-42">
          <mxGeometry y="40" width="40" height="60" as="geometry" />
        </mxCell>
        <mxCell id="X0dmrrOlAeSeErXz5RRt-29" value="" style="rounded=0;whiteSpace=wrap;html=1;" vertex="1" parent="X0dmrrOlAeSeErXz5RRt-42">
          <mxGeometry x="140" y="30" width="240" height="80" as="geometry" />
        </mxCell>
        <mxCell id="X0dmrrOlAeSeErXz5RRt-31" value="Video x" style="rounded=1;whiteSpace=wrap;html=1;" vertex="1" parent="X0dmrrOlAeSeErXz5RRt-42">
          <mxGeometry x="150" y="50" width="90" height="40" as="geometry" />
        </mxCell>
        <mxCell id="X0dmrrOlAeSeErXz5RRt-32" value="Video y" style="rounded=1;whiteSpace=wrap;html=1;" vertex="1" parent="X0dmrrOlAeSeErXz5RRt-42">
          <mxGeometry x="275" y="50" width="90" height="40" as="geometry" />
        </mxCell>
        <mxCell id="X0dmrrOlAeSeErXz5RRt-38" value="" style="edgeStyle=orthogonalEdgeStyle;rounded=0;orthogonalLoop=1;jettySize=auto;html=1;entryX=0.5;entryY=1;entryDx=0;entryDy=0;startArrow=classic;startFill=1;" edge="1" parent="X0dmrrOlAeSeErXz5RRt-42" source="X0dmrrOlAeSeErXz5RRt-33" target="X0dmrrOlAeSeErXz5RRt-29">
          <mxGeometry relative="1" as="geometry">
            <Array as="points">
              <mxPoint x="260" y="130" />
              <mxPoint x="260" y="130" />
            </Array>
          </mxGeometry>
        </mxCell>
        <mxCell id="X0dmrrOlAeSeErXz5RRt-39" value="Similar Video" style="edgeLabel;html=1;align=center;verticalAlign=middle;resizable=0;points=[];" vertex="1" connectable="0" parent="X0dmrrOlAeSeErXz5RRt-38">
          <mxGeometry x="0.075" y="-8" relative="1" as="geometry">
            <mxPoint as="offset" />
          </mxGeometry>
        </mxCell>
        <mxCell id="X0dmrrOlAeSeErXz5RRt-33" value="Video z" style="rounded=1;whiteSpace=wrap;html=1;" vertex="1" parent="X0dmrrOlAeSeErXz5RRt-42">
          <mxGeometry x="215" y="190" width="90" height="40" as="geometry" />
        </mxCell>
        <mxCell id="X0dmrrOlAeSeErXz5RRt-35" value="User A liked" style="text;html=1;align=center;verticalAlign=middle;whiteSpace=wrap;rounded=0;" vertex="1" parent="X0dmrrOlAeSeErXz5RRt-42">
          <mxGeometry x="210" width="95" height="30" as="geometry" />
        </mxCell>
        <mxCell id="X0dmrrOlAeSeErXz5RRt-40" value="" style="endArrow=none;dashed=1;html=1;dashPattern=1 3;strokeWidth=2;rounded=0;entryX=1;entryY=0.75;entryDx=0;entryDy=0;exitX=0;exitY=0.5;exitDx=0;exitDy=0;" edge="1" parent="X0dmrrOlAeSeErXz5RRt-42" source="X0dmrrOlAeSeErXz5RRt-33" target="X0dmrrOlAeSeErXz5RRt-28">
          <mxGeometry width="50" height="50" relative="1" as="geometry">
            <mxPoint x="340" y="60" as="sourcePoint" />
            <mxPoint x="390" y="10" as="targetPoint" />
          </mxGeometry>
        </mxCell>
        <mxCell id="X0dmrrOlAeSeErXz5RRt-41" value="User A may like" style="edgeLabel;html=1;align=center;verticalAlign=middle;resizable=0;points=[];" vertex="1" connectable="0" parent="X0dmrrOlAeSeErXz5RRt-40">
          <mxGeometry x="0.1124" y="-1" relative="1" as="geometry">
            <mxPoint y="1" as="offset" />
          </mxGeometry>
        </mxCell>
        <mxCell id="X0dmrrOlAeSeErXz5RRt-34" value="User A" style="text;html=1;align=center;verticalAlign=middle;whiteSpace=wrap;rounded=0;" vertex="1" parent="X0dmrrOlAeSeErXz5RRt-42">
          <mxGeometry x="-10" y="100" width="60" height="30" as="geometry" />
        </mxCell>
        <mxCell id="X0dmrrOlAeSeErXz5RRt-53" value="" style="edgeStyle=orthogonalEdgeStyle;rounded=0;orthogonalLoop=1;jettySize=auto;html=1;startArrow=classic;startFill=1;" edge="1" parent="1" source="X0dmrrOlAeSeErXz5RRt-43" target="X0dmrrOlAeSeErXz5RRt-52">
          <mxGeometry relative="1" as="geometry" />
        </mxCell>
        <mxCell id="X0dmrrOlAeSeErXz5RRt-54" value="Similar Users" style="edgeLabel;html=1;align=center;verticalAlign=middle;resizable=0;points=[];" vertex="1" connectable="0" parent="X0dmrrOlAeSeErXz5RRt-53">
          <mxGeometry y="-3" relative="1" as="geometry">
            <mxPoint as="offset" />
          </mxGeometry>
        </mxCell>
        <mxCell id="X0dmrrOlAeSeErXz5RRt-43" value="" style="shape=actor;whiteSpace=wrap;html=1;" vertex="1" parent="1">
          <mxGeometry x="-1370" y="1380" width="40" height="60" as="geometry" />
        </mxCell>
        <mxCell id="X0dmrrOlAeSeErXz5RRt-45" style="edgeStyle=orthogonalEdgeStyle;rounded=0;orthogonalLoop=1;jettySize=auto;html=1;exitX=0.5;exitY=1;exitDx=0;exitDy=0;" edge="1" parent="1">
          <mxGeometry relative="1" as="geometry">
            <mxPoint x="-1160" y="1440" as="sourcePoint" />
            <mxPoint x="-1160" y="1440" as="targetPoint" />
          </mxGeometry>
        </mxCell>
        <mxCell id="X0dmrrOlAeSeErXz5RRt-46" value="video x" style="rounded=1;whiteSpace=wrap;html=1;" vertex="1" parent="1">
          <mxGeometry x="-1480" y="1350" width="60" height="30" as="geometry" />
        </mxCell>
        <mxCell id="X0dmrrOlAeSeErXz5RRt-47" value="video x" style="rounded=1;whiteSpace=wrap;html=1;" vertex="1" parent="1">
          <mxGeometry x="-1480" y="1395" width="60" height="30" as="geometry" />
        </mxCell>
        <mxCell id="X0dmrrOlAeSeErXz5RRt-48" value="video x" style="rounded=1;whiteSpace=wrap;html=1;" vertex="1" parent="1">
          <mxGeometry x="-1480" y="1440" width="60" height="30" as="geometry" />
        </mxCell>
        <mxCell id="X0dmrrOlAeSeErXz5RRt-49" value="video x" style="rounded=1;whiteSpace=wrap;html=1;" vertex="1" parent="1">
          <mxGeometry x="-1070" y="1440" width="60" height="30" as="geometry" />
        </mxCell>
        <mxCell id="X0dmrrOlAeSeErXz5RRt-50" value="video x" style="rounded=1;whiteSpace=wrap;html=1;" vertex="1" parent="1">
          <mxGeometry x="-1070" y="1395" width="60" height="30" as="geometry" />
        </mxCell>
        <mxCell id="X0dmrrOlAeSeErXz5RRt-51" value="video x" style="rounded=1;whiteSpace=wrap;html=1;" vertex="1" parent="1">
          <mxGeometry x="-1070" y="1350" width="60" height="30" as="geometry" />
        </mxCell>
        <mxCell id="X0dmrrOlAeSeErXz5RRt-52" value="" style="shape=actor;whiteSpace=wrap;html=1;" vertex="1" parent="1">
          <mxGeometry x="-1180" y="1380" width="40" height="60" as="geometry" />
        </mxCell>
        <mxCell id="X0dmrrOlAeSeErXz5RRt-55" value="User A" style="text;html=1;align=center;verticalAlign=middle;whiteSpace=wrap;rounded=0;" vertex="1" parent="1">
          <mxGeometry x="-1380" y="1440" width="60" height="30" as="geometry" />
        </mxCell>
        <mxCell id="X0dmrrOlAeSeErXz5RRt-56" value="User B" style="text;html=1;align=center;verticalAlign=middle;whiteSpace=wrap;rounded=0;" vertex="1" parent="1">
          <mxGeometry x="-1190" y="1440" width="60" height="30" as="geometry" />
        </mxCell>
        <mxCell id="X0dmrrOlAeSeErXz5RRt-59" value="Like" style="endArrow=classic;html=1;rounded=0;entryX=1;entryY=0.5;entryDx=0;entryDy=0;exitX=0;exitY=0.75;exitDx=0;exitDy=0;" edge="1" parent="1" source="X0dmrrOlAeSeErXz5RRt-43" target="X0dmrrOlAeSeErXz5RRt-47">
          <mxGeometry width="50" height="50" relative="1" as="geometry">
            <mxPoint x="-1400" y="1430" as="sourcePoint" />
            <mxPoint x="-1350" y="1380" as="targetPoint" />
            <Array as="points">
              <mxPoint x="-1390" y="1420" />
            </Array>
          </mxGeometry>
        </mxCell>
        <mxCell id="X0dmrrOlAeSeErXz5RRt-60" value="" style="endArrow=classic;html=1;rounded=0;entryX=1;entryY=0.5;entryDx=0;entryDy=0;exitX=0;exitY=0.75;exitDx=0;exitDy=0;" edge="1" parent="1" source="X0dmrrOlAeSeErXz5RRt-43" target="X0dmrrOlAeSeErXz5RRt-46">
          <mxGeometry width="50" height="50" relative="1" as="geometry">
            <mxPoint x="-1400" y="1390" as="sourcePoint" />
            <mxPoint x="-1350" y="1350" as="targetPoint" />
            <Array as="points" />
          </mxGeometry>
        </mxCell>
        <mxCell id="X0dmrrOlAeSeErXz5RRt-65" value="Like" style="edgeLabel;html=1;align=center;verticalAlign=middle;resizable=0;points=[];" vertex="1" connectable="0" parent="X0dmrrOlAeSeErXz5RRt-60">
          <mxGeometry x="0.0557" y="-1" relative="1" as="geometry">
            <mxPoint x="-1" as="offset" />
          </mxGeometry>
        </mxCell>
        <mxCell id="X0dmrrOlAeSeErXz5RRt-61" value="" style="endArrow=classic;html=1;rounded=0;entryX=1;entryY=0.5;entryDx=0;entryDy=0;exitX=0;exitY=0.75;exitDx=0;exitDy=0;" edge="1" parent="1" source="X0dmrrOlAeSeErXz5RRt-43" target="X0dmrrOlAeSeErXz5RRt-48">
          <mxGeometry width="50" height="50" relative="1" as="geometry">
            <mxPoint x="-1370" y="1420" as="sourcePoint" />
            <mxPoint x="-1080" y="1470" as="targetPoint" />
            <Array as="points" />
          </mxGeometry>
        </mxCell>
        <mxCell id="X0dmrrOlAeSeErXz5RRt-67" value="Like" style="edgeLabel;html=1;align=center;verticalAlign=middle;resizable=0;points=[];" vertex="1" connectable="0" parent="X0dmrrOlAeSeErXz5RRt-61">
          <mxGeometry x="-0.0706" y="2" relative="1" as="geometry">
            <mxPoint as="offset" />
          </mxGeometry>
        </mxCell>
        <mxCell id="X0dmrrOlAeSeErXz5RRt-62" value="Like" style="endArrow=classic;html=1;rounded=0;exitX=1;exitY=0.75;exitDx=0;exitDy=0;entryX=0;entryY=0.5;entryDx=0;entryDy=0;" edge="1" parent="1" source="X0dmrrOlAeSeErXz5RRt-52" target="X0dmrrOlAeSeErXz5RRt-50">
          <mxGeometry width="50" height="50" relative="1" as="geometry">
            <mxPoint x="-1100" y="1550" as="sourcePoint" />
            <mxPoint x="-1050" y="1500" as="targetPoint" />
            <Array as="points" />
          </mxGeometry>
        </mxCell>
        <mxCell id="X0dmrrOlAeSeErXz5RRt-63" value="" style="endArrow=classic;html=1;rounded=0;entryX=0;entryY=0.5;entryDx=0;entryDy=0;exitX=1;exitY=0.75;exitDx=0;exitDy=0;" edge="1" parent="1" source="X0dmrrOlAeSeErXz5RRt-52" target="X0dmrrOlAeSeErXz5RRt-51">
          <mxGeometry width="50" height="50" relative="1" as="geometry">
            <mxPoint x="-1150" y="1400" as="sourcePoint" />
            <mxPoint x="-1100" y="1350" as="targetPoint" />
          </mxGeometry>
        </mxCell>
        <mxCell id="X0dmrrOlAeSeErXz5RRt-68" value="Like" style="edgeLabel;html=1;align=center;verticalAlign=middle;resizable=0;points=[];" vertex="1" connectable="0" parent="X0dmrrOlAeSeErXz5RRt-63">
          <mxGeometry x="0.3271" y="-2" relative="1" as="geometry">
            <mxPoint as="offset" />
          </mxGeometry>
        </mxCell>
        <mxCell id="X0dmrrOlAeSeErXz5RRt-64" value="" style="endArrow=classic;html=1;rounded=0;exitX=1;exitY=0.75;exitDx=0;exitDy=0;entryX=0;entryY=0.5;entryDx=0;entryDy=0;dashed=1;dashPattern=12 12;" edge="1" parent="1" source="X0dmrrOlAeSeErXz5RRt-52" target="X0dmrrOlAeSeErXz5RRt-49">
          <mxGeometry width="50" height="50" relative="1" as="geometry">
            <mxPoint x="-1130" y="1435" as="sourcePoint" />
            <mxPoint x="-1060" y="1420" as="targetPoint" />
            <Array as="points" />
          </mxGeometry>
        </mxCell>
        <mxCell id="X0dmrrOlAeSeErXz5RRt-69" value="May Like" style="edgeLabel;html=1;align=center;verticalAlign=middle;resizable=0;points=[];" vertex="1" connectable="0" parent="X0dmrrOlAeSeErXz5RRt-64">
          <mxGeometry x="0.1138" y="-2" relative="1" as="geometry">
            <mxPoint y="1" as="offset" />
          </mxGeometry>
        </mxCell>
      </root>
    </mxGraphModel>
  </diagram>
</mxfile>
